<?xml version="1.0"?>
<svg width="516" height="196" xmlns="http://www.w3.org/2000/svg" xmlns:svg="http://www.w3.org/2000/svg" xmlns:xlink="http://www.w3.org/1999/xlink" clip-rule="evenodd">
 <g>
  <title>Layer 1</title>
  <g id="svg_1">
   <path id="svg_2" fill="#000" fill-rule="nonzero" d="m30.514,40.303l0.331,0c3.038,-0.052 5.495,-1.126 7.31,-3.181c3.992,-4.528 3.328,-12.289 3.255,-13.03c-0.259,-5.56 -2.872,-8.22 -5.028,-9.462c-1.607,-0.928 -3.484,-1.429 -5.578,-1.47l-0.073,0c-0.01,0 -0.031,0 -0.041,0l-0.062,0c-1.151,0 -3.411,0.187 -5.578,1.429c-2.178,1.241 -4.832,3.901 -5.091,9.503c-0.073,0.741 -0.736,8.502 3.256,13.03c1.804,2.055 4.261,3.129 7.299,3.181zm-7.787,-15.95c0,-0.031 0.011,-0.063 0.011,-0.083c0.342,-7.48 5.619,-8.283 7.879,-8.283l0.125,0c2.799,0.062 7.558,1.21 7.879,8.283c0,0.031 0,0.062 0.011,0.083c0.01,0.073 0.736,7.167 -2.561,10.901c-1.306,1.482 -3.048,2.212 -5.34,2.233l-0.103,0c-2.281,-0.021 -4.033,-0.751 -5.329,-2.233c-3.287,-3.713 -2.582,-10.838 -2.572,-10.901z"/>
   <path id="svg_3" fill="#000" fill-rule="nonzero" d="m51.986,53.176c0,-0.01 0,-0.021 0,-0.031c0,-0.084 -0.011,-0.167 -0.011,-0.261c-0.062,-2.065 -0.197,-6.895 -4.696,-8.439c-0.031,-0.011 -0.073,-0.021 -0.104,-0.032c-4.676,-1.199 -8.564,-3.912 -8.605,-3.943c-0.633,-0.448 -1.504,-0.292 -1.95,0.344c-0.445,0.637 -0.29,1.513 0.343,1.962c0.176,0.125 4.302,3.014 9.466,4.35c2.415,0.866 2.685,3.463 2.757,5.842c0,0.093 0,0.177 0.011,0.26c0.01,0.939 -0.052,2.389 -0.218,3.224c-1.68,0.96 -8.263,4.277 -18.279,4.277c-9.974,0 -16.599,-3.328 -18.289,-4.288c-0.166,-0.834 -0.238,-2.284 -0.218,-3.223c0,-0.084 0.011,-0.167 0.011,-0.261c0.072,-2.378 0.342,-4.976 2.758,-5.842c5.163,-1.335 9.289,-4.235 9.466,-4.35c0.632,-0.448 0.788,-1.325 0.342,-1.961c-0.446,-0.636 -1.317,-0.793 -1.949,-0.344c-0.042,0.031 -3.909,2.743 -8.606,3.943c-0.041,0.01 -0.072,0.021 -0.103,0.031c-4.5,1.555 -4.635,6.385 -4.697,8.44c0,0.094 0,0.177 -0.011,0.26c0,0.011 0,0.021 0,0.032c-0.01,0.542 -0.02,3.328 0.529,4.725c0.104,0.272 0.291,0.501 0.539,0.658c0.311,0.208 7.766,4.986 20.239,4.986c12.472,0 19.927,-4.788 20.238,-4.986c0.238,-0.157 0.435,-0.386 0.539,-0.658c0.518,-1.387 0.508,-4.172 0.498,-4.715z"/>
  </g>
  <path id="svg_4" fill="#000" fill-rule="nonzero" d="m494.794,27.05l-3.822,-3.485c-0.168,-0.154 -0.395,-0.24 -0.633,-0.24l-1.785,0l-32.82,-8.599c-0.011,-0.003 -0.022,-0.005 -0.032,-0.007c-0.224,-0.07 -0.464,-0.107 -0.713,-0.107c-0.487,0 -0.94,0.144 -1.307,0.394c-0.026,0.017 -0.051,0.035 -0.076,0.054l-0.037,0.03c-0.008,0.006 -0.016,0.012 -0.024,0.019l-10.352,8.216l-2.531,0c-0.495,0 -0.896,0.366 -0.896,0.817l0,6.971c0,0.451 0.401,0.817 0.896,0.817l5.732,0c0.495,0 0.896,-0.366 0.896,-0.817l0,-2.668l2.985,0l0,31.477l-1.015,0c-0.495,0 -0.896,0.366 -0.896,0.817l0,3.486c0,0.451 0.401,0.817 0.896,0.817l11.464,0c0.494,0 0.895,-0.366 0.895,-0.817l0,-3.486c0,-0.451 -0.401,-0.817 -0.895,-0.817l-1.015,0l0,-22.764l3.27,0c1.333,0 2.49,-0.865 2.751,-2.058l1.46,-6.655l18.432,0l0,2.668c0,1.126 0.801,2.084 1.911,2.425l0,6.002l-3.625,4.133c-0.127,0.145 -0.197,0.325 -0.197,0.511l0,6.971c0,0.451 0.401,0.816 0.896,0.816l7.643,0c0.494,0 0.895,-0.365 0.895,-0.816l0,-6.971c0,-0.186 -0.069,-0.366 -0.196,-0.511l-3.625,-4.133l0,-6.002c1.109,-0.342 1.911,-1.299 1.911,-2.425l0,-2.668l2.925,0c0.363,0 0.689,-0.199 0.828,-0.505c0.138,-0.305 0.062,-0.656 -0.194,-0.89zm-39.799,-10.804c0.168,0 0.32,0.102 0.368,0.25l2.246,6.829l-5.235,0l2.247,-6.829c0.048,-0.148 0.2,-0.25 0.374,-0.25zm4.485,7.079l-2.131,-6.476l24.718,6.476l-22.587,0zm-7.357,-4.922l-1.619,4.922l-4.11,0l-0.473,0l6.202,-4.922zm-6.625,11.893l-3.94,0l0,-5.337l3.94,0l0,5.337zm6.568,-0.654l1.874,2.778l-1.874,2.778l0,-5.556zm2.926,15.664l2.219,3.289l-4.438,0l2.219,-3.289zm-2.926,1.22l0,-5.556l1.874,2.778l-1.874,2.778zm3.977,-2.778l1.875,-2.778l0,5.556l-1.875,-2.778zm-1.051,-1.559l-2.219,-3.288l4.437,0l-2.218,3.288zm2.219,8.04l-2.219,3.288l-2.219,-3.288l4.438,0zm0.707,-15.031l-1.875,-2.778l1.875,-2.778l0,5.556zm-0.707,2.069l-4.438,0l2.219,-3.288l2.219,3.288zm-3.271,17.809l-1.874,2.777l0,-5.555l1.874,2.778zm1.052,1.558l2.219,3.288l-4.438,0l2.219,-3.288zm1.051,-1.558l1.875,-2.778l0,5.555l-1.875,-2.777zm-1.051,-24.214l-1.631,-2.417l3.262,0l-1.631,2.417zm4.836,32.546l-9.672,0l0,-1.852l9.672,0l0,1.852zm3.151,-27.884l-3.27,0l0,-4.465l5.081,0l-0.816,3.721c-0.094,0.431 -0.513,0.744 -0.995,0.744zm2.169,-6.099l-5.439,0l0,-0.98l5.654,0l-0.215,0.98zm23.28,11.709l1.958,2.233l-3.916,0l1.958,-2.233zm-2.925,9.203l0,-5.337l5.851,0l0,5.337l-5.851,0zm3.94,-19.224c0,0.511 -0.455,0.926 -1.015,0.926c-0.559,0 -1.015,-0.415 -1.015,-0.926l0,-2.668l2.03,0l0,2.668zm-42.153,-4.302l0,-1.852l42.678,0l2.03,1.852l-44.708,0z"/>
  <path id="svg_5" fill="#030104" fill-rule="nonzero" d="m453.223,167.742l6.512,-1.843l0,-11.834l-6.512,0l0,13.677z"/>
  <path id="svg_6" fill="#030104" fill-rule="nonzero" d="m471.071,167.742l6.517,-1.843l0,-11.834l-6.517,0l0,13.677z"/>
  <path id="svg_7" fill="#030104" fill-rule="nonzero" d="m445.267,192.106l46.742,0l0,-12.743l-46.742,0l0,12.743zm22.386,-10.78l5.014,0l0,6.429l-5.014,0l0,-6.429l0,0zm-8.863,0l5.017,0l0,6.429l-5.017,0l0,-6.429zm-9.19,0l5.011,0l0,6.429l-5.011,0l0,-6.429z"/>
  <path id="svg_8" fill="#030104" fill-rule="nonzero" d="m480.972,171.818l-1.279,-5.205l-16.249,5.205l-1.945,-5.205l-16.232,5.205l0,5.549l46.739,0l0,-5.549l-11.034,0z"/>
  <path id="svg_9" fill="#030104" fill-rule="nonzero" d="m450.278,153.217c0.818,-0.123 1.449,-0.492 1.948,-0.894c0.52,-0.408 0.917,-0.816 1.511,-1.061c0.561,-0.253 1.277,-0.325 1.739,-0.251c0.442,0.062 0.726,0.215 1.053,0.619c0.309,0.386 0.532,0.878 0.805,1.394l0.132,0c0.234,-0.554 0.244,-1.143 0.008,-1.738c-0.125,-0.297 -0.338,-0.602 -0.696,-0.843c-0.35,-0.246 -0.87,-0.364 -1.299,-0.324c-0.895,0.088 -1.419,0.54 -1.976,0.85c-0.549,0.319 -1.118,0.665 -1.694,0.872c-0.594,0.205 -1.185,0.347 -1.702,0.373c-0.524,0.01 -0.932,-0.126 -1.339,-0.375c-0.842,-0.502 -1.516,-1.427 -2.224,-2.363l-0.132,0.02c-0.089,1.123 0.249,2.321 1.461,3.231c0.617,0.442 1.595,0.643 2.405,0.49z"/>
  <path id="svg_10" fill="#030104" fill-rule="nonzero" d="m470.45,153.309c0.616,-0.102 1.054,-0.389 1.399,-0.705c0.336,-0.303 0.611,-0.603 1.019,-0.761c0.392,-0.169 0.917,-0.157 1.172,-0.083c0.232,0.067 0.341,0.093 0.589,0.346c0.224,0.237 0.418,0.564 0.684,0.916l0.134,0c0.241,-0.39 0.276,-0.814 0.126,-1.26c-0.082,-0.221 -0.241,-0.456 -0.514,-0.646c-0.268,-0.197 -0.683,-0.284 -1.014,-0.248c-0.683,0.085 -1.026,0.456 -1.408,0.683c-0.38,0.238 -0.788,0.452 -1.213,0.577c-0.417,0.103 -0.83,0.175 -1.138,0.177c-0.32,-0.014 -0.521,-0.099 -0.77,-0.241c-0.529,-0.288 -1.048,-0.888 -1.664,-1.511l-0.132,0.022c-0.187,0.808 0,1.68 0.897,2.377c0.467,0.337 1.227,0.486 1.833,0.357z"/>
  <path id="svg_11" fill="#000" fill-rule="nonzero" d="m117.5,161.506l1.225,0c-0.009,0.056 -0.014,0.113 -0.014,0.172l0,21.001l-0.832,0c-0.838,0 -1.518,0.599 -1.518,1.337c0,0.738 0.68,1.336 1.518,1.336l45.013,0c0.838,0 1.518,-0.598 1.518,-1.336c0,-0.738 -0.68,-1.337 -1.518,-1.337l-0.832,0l0,-21.001c0,-0.059 -0.005,-0.116 -0.014,-0.172l1.225,0c1.143,0 2.152,-0.643 2.51,-1.599c0.358,-0.957 -0.019,-2.002 -0.938,-2.601l-23.555,-15.351c-0.536,-0.349 -1.269,-0.349 -1.805,0l-23.555,15.351c-0.919,0.599 -1.296,1.644 -0.938,2.601c0.358,0.956 1.367,1.599 2.51,1.599l0,0zm24.248,21.173l-2.724,0l0,-21.001c0,-0.059 -0.006,-0.116 -0.014,-0.172l2.752,0c-0.008,0.056 -0.014,0.113 -0.014,0.172l0,21.001l0,0zm-11.519,0l-2.725,0l0,-21.001c0,-0.059 -0.005,-0.116 -0.014,-0.172l2.753,0c-0.008,0.056 -0.014,0.113 -0.014,0.172l0,21.001zm-8.484,0l0,-19.665l2.725,0l0,19.665l-2.725,0zm11.519,0l0,-19.665l2.725,0l0,19.665l-2.725,0zm11.518,0l0,-19.665l2.725,0l0,19.665l-2.725,0zm11.519,0l0,-19.665l2.725,0l0,19.665l-2.725,0zm-3.034,-21.001l0,21.001l-2.725,0l0,-21.001c0,-0.059 -0.006,-0.116 -0.014,-0.172l2.753,0c-0.009,0.056 -0.014,0.113 -0.014,0.172l0,0zm-12.881,-16.986l21.698,14.141l-43.397,0l21.699,-14.141l0,0z"/>
  <path id="svg_12" fill="#000" fill-rule="nonzero" d="m165.744,186.957l-50.716,0c-0.838,0 -1.518,0.598 -1.518,1.336c0,0.738 0.68,1.337 1.518,1.337l50.716,0c0.838,0 1.517,-0.599 1.517,-1.337c0,-0.738 -0.679,-1.336 -1.517,-1.336z"/>
  <g id="svg_13">
   <path id="svg_14" fill="none" stroke-width="1.5px" stroke="#000" d="m455.572,78.508l0.036,61.867"/>
   <path id="svg_15" fill="#000" stroke-width="1.5px" stroke="#000" d="m455.643,71.859l4.012,8.872l-8.024,0l4.012,-8.872z"/>
  </g>
  <path id="svg_17" fill="#000" stroke-width="1.5px" stroke="#000" d="m429.371,29.061l-8.91,3.928l0.076,-8.024l8.834,4.096z"/>
  <path stroke="#000" id="svg_16" fill="none" stroke-width="1.5px" d="m428.816003,28.705l-260.664994,-0.611"/>
  <g stroke="null" id="svg_18">
   <path stroke="#000" id="svg_19" fill="none" stroke-width="1.5px" d="m165.13796,48.708l262.811033,-0.816"/>
   <path stroke="#000" id="svg_20" fill="#000" stroke-width="1.5px" d="m164.725001,48.58l6.515496,-4.023l0.007348,8.024l-6.522844,-4.001z"/>
  </g>
  <g id="svg_21">
   <path id="svg_22" fill="none" stroke-width="1.5px" stroke="#000" d="m139.939,74.63l0.035,61.866"/>
   <path id="svg_23" fill="#000" stroke-width="1.5px" stroke="#000" d="m140.009,67.981l4.013,8.872l-8.025,0l4.012,-8.872z"/>
  </g>
  <g id="svg_24">
   <path id="svg_25" fill="none" stroke-width="1.5px" stroke="#000" d="m480.307,134.229l-0.566,-61.864"/>
   <path id="svg_26" fill="#000" stroke-width="1.5px" stroke="#000" d="m480.294,140.878l-4.088,-8.837l8.024,-0.069l-3.936,8.906z"/>
  </g>
  <g id="svg_27">
   <ellipse id="svg_28" fill="#fff" stroke-width="1.5px" stroke="#990000" ry="10.735" rx="11.392" cy="13.034" cx="294.976"/>
   <text id="svg_29" font-family="Arial" font-size="18.094px" fill="#990000" y="19.499" x="289.716">1</text>
  </g>
  <g id="svg_30">
   <ellipse id="svg_31" fill="#fff" stroke-width="1.5px" stroke="#990000" ry="11.743" rx="12.638" cy="105.265" cx="501.857"/>
   <text id="svg_32" font-family="Arial" font-size="19.792px" fill="#990000" y="111.969px" x="496.407px">2</text>
  </g>
  <g id="svg_33">
   <ellipse id="svg_34" fill="#fff" stroke-width="1.5px" stroke="#990000" ry="11.159" rx="11.708" cy="110.009" cx="122.007"/>
   <text id="svg_35" font-family="Arial" font-size="18.808px" fill="#990000" y="116.379" x="116.957">3</text>
  </g>
  <use x="-260.763433" y="-304.464067" transform="matrix(0.2646076533876851,0,0,0.24633448753733408,139.15310230425533,87.36440558437384) " xlink:href="#svg_37" id="svg_38"/>
  <g id="svg_39"/>
  <path stroke="#000" id="svg_44" fill="none" stroke-width="1.5px" d="m103.332486,36.805494l-44.664983,-0.611"/>
  <path id="svg_45" fill="#000" stroke-width="1.5px" stroke="#000" d="m106.455,37.583995l-8.91,3.928l0.076,-8.024l8.834,4.096z"/>
 </g>
 <defs>
  <symbol viewBox="0 0 512 512" y="0px" x="0px" id="svg_37" xmlns:xlink="http://www.w3.org/1999/xlink" xmlns="http://www.w3.org/2000/svg">
   <g>
    <g>
     <path d="m512,194.821c0,-5.633 -4.567,-10.199 -10.199,-10.199c-5.632,0 -10.199,4.566 -10.199,10.199c0,8.703 -5.877,16.043 -13.866,18.305c-10.877,-23.198 -28.59,-44.396 -52.378,-62.174c-31.407,-23.474 -70.652,-38.861 -113.227,-44.789c9.758,-9.951 15.789,-23.568 15.789,-38.573c0,-30.402 -24.734,-55.136 -55.137,-55.136c-30.403,0 -55.137,24.734 -55.137,55.136c0,15.036 6.056,28.678 15.849,38.635c-22.029,3.206 -43.464,9.115 -63.455,17.564c-22.705,-19.645 -55.113,-24.538 -82.853,-11.918c-2.984,1.357 -5.133,4.067 -5.777,7.282s0.298,6.543 2.529,8.945l28.458,30.624c-16.385,13.792 -29.927,29.632 -39.712,46.474l-50.896,0c-12.014,-0.001 -21.789,9.774 -21.789,21.788l0,59.933c0,9.565 6.131,17.919 15.256,20.786l45.732,14.373c12.855,36.832 42.737,55.82 62.815,68.576c0.783,0.497 1.553,0.986 2.313,1.47l13.94,98.653c0.711,5.031 5.017,8.772 10.098,8.772l48.185,0c5.081,0 9.387,-3.74 10.098,-8.772l8.693,-61.522c17.933,3.536 36.422,5.325 55.11,5.325c19.825,0 39.373,-2.001 58.27,-5.956l8.783,62.153c0.711,5.032 5.017,8.772 10.098,8.772l48.185,0c5.081,0 9.387,-3.74 10.098,-8.772l14.313,-101.282c43.504,-31.169 68.354,-74.862 68.354,-120.5c0,-12.536 -1.81,-24.846 -5.331,-36.763c15.664,-5.223 26.99,-20.014 26.99,-37.409zm-239.216,-161.97c19.154,0 34.738,15.583 34.738,34.737s-15.583,34.739 -34.738,34.739s-34.738,-15.583 -34.738,-34.739c-0.001,-19.155 15.584,-34.737 34.738,-34.737zm133.971,342.408c-2.365,1.617 -3.942,4.155 -4.343,6.993l-13.693,96.898l-30.466,0l-9.1,-64.396c-0.405,-2.868 -2.01,-5.428 -4.415,-7.042c-2.404,-1.615 -5.383,-2.13 -8.189,-1.418c-20.643,5.232 -42.28,7.886 -64.307,7.886c-20.912,0 -41.533,-2.406 -61.289,-7.152c-2.794,-0.672 -5.742,-0.133 -8.119,1.484c-2.376,1.617 -3.961,4.16 -4.362,7.006l-8.992,63.632l-30.466,0l-13.355,-94.503c-0.411,-2.913 -2.061,-5.505 -4.524,-7.114c-2.025,-1.321 -4.165,-2.681 -6.394,-4.098c-20.621,-13.101 -46.284,-29.405 -55.859,-62.35c-0.953,-3.277 -3.48,-5.86 -6.736,-6.884l-50.776,-15.958c-0.581,-0.183 -0.973,-0.716 -0.973,-1.326l0,-59.933c0,-0.767 0.623,-1.391 1.39,-1.391l56.907,0c3.787,0 7.262,-2.098 9.026,-5.449c10.101,-19.196 25.929,-37.228 45.771,-52.148c2.31,-1.737 3.774,-4.371 4.03,-7.249c0.256,-2.877 -0.721,-5.729 -2.688,-7.845l-24.921,-26.818c18.32,-3.042 37.412,2.983 50.661,16.823c3.001,3.134 7.659,4.028 11.605,2.223c30.534,-13.947 65.135,-21.32 100.061,-21.32c109.014,0 197.703,65.13 197.703,145.187c0.004,40.079 -23.028,78.811 -63.187,106.262z"/>
    </g>
   </g>
   <g>
    <g>
     <path d="m126.061,195.449c-5.632,0 -10.199,4.566 -10.199,10.199l0,11.911c0,5.633 4.567,10.199 10.199,10.199c5.632,0 10.199,-4.566 10.199,-10.199l0,-11.911c0,-5.632 -4.567,-10.199 -10.199,-10.199z"/>
    </g>
   </g>
   <g>
    <g>
     <path d="m311.225,139.143l-6.497,0c-5.632,0 -10.199,4.566 -10.199,10.199c0,5.633 4.567,10.199 10.199,10.199l6.497,0c5.632,0 10.199,-4.566 10.199,-10.199c0,-5.633 -4.567,-10.199 -10.199,-10.199z"/>
    </g>
   </g>
   <g>
    <g>
     <path d="m263.58,139.143l-34.651,0c-5.632,0 -10.199,4.566 -10.199,10.199c0,5.633 4.567,10.199 10.199,10.199l34.651,0c5.632,0 10.199,-4.566 10.199,-10.199c0,-5.633 -4.567,-10.199 -10.199,-10.199z"/>
    </g>
   </g>
   <g/>
   <g/>
   <g/>
   <g/>
   <g/>
   <g/>
   <g/>
   <g/>
   <g/>
   <g/>
   <g/>
   <g/>
   <g/>
   <g/>
   <g/>
  </symbol>
 </defs>
</svg>